<?xml version="1.0" standalone="no"?>
<!DOCTYPE svg PUBLIC "-//W3C//DTD SVG 20010904//EN"
 "http://www.w3.org/TR/2001/REC-SVG-20010904/DTD/svg10.dtd">
<svg version="1.0" xmlns="http://www.w3.org/2000/svg"
 width="2500.000000pt" height="2500.000000pt" viewBox="0 0 2500.000000 2500.000000"
 preserveAspectRatio="xMidYMid meet">
<metadata>
Created by potrace 1.14, written by Peter Selinger 2001-2017
</metadata>
<g transform="translate(0.000000,2500.000000) scale(0.100000,-0.100000)"
fill="#000000" stroke="none">
<path d="M12099 24995 c-2 -2 -69 -6 -149 -9 -191 -8 -259 -12 -508 -31 -104
-8 -188 -15 -222 -20 -19 -2 -57 -7 -85 -10 -59 -6 -354 -43 -405 -51 -19 -2
-64 -9 -100 -14 -122 -17 -145 -21 -255 -40 -60 -11 -126 -22 -145 -25 -33 -5
-85 -16 -175 -36 -22 -5 -51 -11 -65 -13 -66 -12 -189 -38 -220 -46 -19 -5
-50 -12 -69 -15 -107 -18 -665 -169 -896 -242 -44 -13 -87 -26 -95 -28 -110
-25 -844 -295 -1047 -386 -23 -11 -44 -19 -47 -19 -5 0 -87 -36 -161 -70 -139
-64 -218 -100 -221 -100 -21 0 -791 -395 -839 -430 -5 -4 -30 -19 -55 -32 -40
-23 -282 -164 -320 -188 -8 -5 -71 -44 -140 -86 -194 -120 -491 -319 -675
-454 -27 -20 -93 -67 -145 -105 -52 -38 -97 -72 -100 -75 -3 -3 -23 -18 -45
-34 -44 -33 -327 -257 -335 -266 -3 -3 -30 -25 -60 -50 -61 -49 -245 -206
-270 -230 -9 -8 -36 -32 -60 -53 -25 -22 -88 -78 -140 -127 -332 -308 -615
-594 -878 -889 -13 -14 -33 -37 -46 -51 -193 -213 -531 -636 -768 -961 -104
-143 -352 -510 -378 -559 -7 -14 -16 -27 -20 -30 -3 -3 -50 -76 -103 -162 -62
-102 -94 -164 -91 -175 4 -13 3 -14 -3 -5 -7 9 -13 5 -23 -15 -8 -16 -22 -39
-32 -52 -13 -17 -15 -27 -8 -37 8 -9 7 -14 -1 -20 -8 -4 -9 -3 -5 4 4 7 3 12
-1 12 -5 0 -17 -15 -28 -32 -18 -31 -18 -32 0 -18 17 14 17 14 5 -7 -8 -12
-18 -19 -24 -16 -5 4 -7 -2 -4 -14 3 -11 -1 -28 -8 -38 -8 -10 -14 -14 -14 -9
0 6 5 15 12 22 9 9 9 12 1 12 -13 0 -27 -36 -19 -49 3 -5 -2 -15 -12 -22 -16
-13 -16 -12 -3 6 14 18 13 19 -1 5 -19 -19 -72 -114 -58 -105 17 10 11 -6 -8
-23 -10 -10 -12 -13 -5 -8 17 11 16 -4 -2 -28 -11 -14 -15 -16 -15 -5 0 8 -8
1 -18 -16 -17 -27 -17 -31 -3 -37 9 -4 11 -7 4 -7 -6 -1 -17 -17 -23 -37 -8
-24 -17 -34 -27 -30 -8 3 -11 1 -8 -5 6 -9 -12 -68 -24 -79 -3 -3 -20 -32 -37
-65 -19 -38 -35 -59 -45 -57 -7 2 -11 1 -7 -3 3 -4 -7 -28 -23 -53 -30 -47
-38 -82 -18 -82 6 0 4 -7 -5 -15 -8 -8 -18 -24 -21 -35 -4 -11 -10 -18 -15
-15 -12 7 -39 -46 -33 -63 7 -18 -32 -96 -62 -126 -18 -18 -24 -33 -20 -46 3
-10 -4 -40 -16 -67 -12 -26 -20 -48 -19 -48 2 0 -3 -11 -10 -25 -8 -14 -15
-31 -16 -38 -4 -21 -14 -27 -14 -9 0 9 -5 17 -10 17 -6 0 -9 -3 -8 -7 1 -5 -3
-19 -9 -33 -6 -14 -18 -42 -27 -64 -20 -47 -20 -46 2 -47 10 0 12 -3 5 -6 -7
-2 -13 -11 -13 -18 0 -8 -9 -17 -20 -20 -20 -6 -25 -20 -21 -62 1 -12 -9 -46
-23 -76 -13 -31 -22 -58 -18 -61 5 -5 -13 -10 -30 -7 -10 1 -28 -58 -28 -92 0
-17 -12 -48 -27 -70 -22 -32 -25 -42 -15 -58 7 -11 8 -19 2 -19 -5 0 -14 -19
-20 -42 -7 -24 -22 -54 -34 -68 -32 -36 -47 -75 -34 -88 6 -6 8 -18 5 -26 -4
-9 -7 -18 -7 -21 -1 -2 -14 -41 -31 -85 -16 -44 -29 -83 -30 -88 -1 -4 -6 -18
-12 -32 -10 -25 -13 -34 -15 -57 -1 -7 -8 -10 -16 -7 -18 7 -30 -40 -17 -65 6
-10 7 -21 4 -25 -7 -7 -11 -19 -15 -51 -2 -11 -6 -22 -10 -25 -4 -3 -10 -17
-12 -30 -2 -14 -5 -26 -7 -27 -1 -3 -5 -15 -8 -29 0 -4 -7 -1 -14 5 -16 13
-16 13 -22 -79 -5 -74 -7 -90 -18 -107 -5 -7 -5 -13 -1 -13 3 0 1 -7 -6 -15
-6 -8 -9 -19 -5 -25 3 -5 2 -10 -2 -10 -5 0 -10 -11 -11 -25 -1 -14 -11 -35
-21 -47 -11 -11 -24 -34 -30 -49 -8 -24 -7 -29 6 -29 9 0 13 -6 10 -14 -3 -8
-9 -30 -12 -50 -4 -19 -10 -35 -14 -34 -17 2 -34 -3 -28 -8 3 -3 2 -17 -4 -31
-6 -16 -6 -22 1 -18 6 3 10 3 11 -2 0 -4 2 -18 3 -30 2 -13 0 -23 -4 -23 -6 0
-34 -119 -35 -147 0 -6 -4 -15 -8 -19 -4 -4 -7 -15 -7 -23 0 -9 -9 -24 -20
-34 -21 -18 -25 -43 -11 -66 12 -18 1 -53 -14 -47 -8 3 -15 -7 -18 -27 -2 -18
-1 -33 4 -35 12 -5 12 -39 0 -60 -5 -9 -11 -38 -13 -65 -3 -26 -13 -56 -23
-68 -11 -11 -20 -27 -21 -36 -2 -9 -6 -28 -9 -41 -5 -19 -3 -23 9 -19 15 6 14
-13 -4 -97 -5 -22 -7 -43 -4 -47 2 -4 0 -10 -6 -14 -6 -4 -8 -11 -4 -16 3 -5
1 -16 -6 -24 -8 -9 -8 -15 0 -20 8 -5 8 -11 -1 -21 -6 -7 -9 -20 -6 -28 3 -8
3 -17 -1 -20 -6 -7 -9 -19 -17 -70 -2 -16 -11 -36 -20 -46 -20 -22 -19 -57 2
-69 11 -6 13 -11 5 -11 -7 0 -11 -3 -9 -7 3 -5 1 -17 -4 -28 -6 -16 -8 -13
-10 15 -1 28 -4 22 -13 -30 -7 -36 -10 -78 -8 -95 10 -69 3 -149 -13 -161 -9
-7 -17 -31 -20 -55 -2 -24 -6 -59 -9 -76 -6 -32 7 -46 17 -20 3 7 6 5 6 -5 1
-10 -6 -18 -14 -18 -10 0 -15 -10 -15 -31 0 -16 4 -28 9 -24 6 3 9 -14 8 -40
-1 -25 -6 -45 -11 -45 -5 0 -3 -6 3 -13 6 -8 8 -17 4 -21 -4 -4 -8 -21 -9 -39
-4 -102 -9 -133 -23 -145 -12 -10 -13 -15 -3 -18 17 -8 15 -31 -3 -38 -18 -7
-22 -126 -4 -126 11 0 7 -115 -5 -127 -3 -3 -6 0 -6 7 0 7 -3 11 -6 7 -4 -3
-8 -68 -11 -144 -3 -97 -1 -134 6 -123 8 11 11 3 11 -32 0 -26 -6 -53 -14 -60
-16 -17 -15 -64 2 -60 9 1 12 -17 11 -65 -2 -77 -7 -105 -18 -99 -4 3 -8 -1
-8 -9 0 -8 6 -15 12 -15 7 0 10 -11 7 -30 -2 -16 -8 -27 -13 -24 -5 3 -9 -16
-9 -41 0 -28 4 -44 10 -40 6 3 10 -4 10 -17 0 -18 -2 -20 -10 -8 -6 10 -9 -6
-9 -50 1 -42 4 -59 10 -49 6 10 8 7 5 -11 -3 -14 -5 -25 -7 -25 -6 0 -4 -107
3 -111 4 -3 5 -13 0 -22 -4 -9 -7 -28 -6 -42 1 -14 4 -97 8 -185 4 -88 9 -178
11 -200 2 -22 6 -87 10 -145 4 -58 8 -121 10 -140 11 -142 17 -199 20 -225 5
-30 9 -69 20 -180 4 -33 8 -69 9 -80 8 -48 16 -104 21 -150 7 -57 12 -94 26
-185 6 -36 12 -76 14 -90 2 -14 6 -41 10 -60 3 -19 10 -62 16 -95 5 -33 14
-80 19 -105 5 -25 12 -63 15 -84 3 -21 7 -48 10 -60 3 -12 7 -32 9 -46 2 -14
12 -59 20 -100 9 -41 26 -118 37 -170 11 -52 24 -113 30 -135 12 -43 12 -42
24 -100 5 -22 10 -42 10 -45 56 -220 118 -451 130 -483 8 -20 15 -39 14 -42
-2 -22 143 -481 211 -665 17 -47 37 -103 44 -125 14 -42 71 -195 86 -230 5
-11 42 -103 83 -205 66 -164 103 -248 194 -450 144 -318 421 -856 552 -1070
11 -19 24 -42 28 -50 4 -8 22 -38 40 -67 18 -29 33 -55 33 -58 0 -3 19 -36 43
-73 24 -37 75 -116 112 -177 146 -232 282 -433 469 -690 85 -117 253 -342 270
-362 6 -7 16 -18 21 -25 160 -204 480 -577 641 -748 29 -30 62 -66 74 -80 30
-35 361 -368 467 -470 186 -179 391 -362 593 -531 69 -57 127 -106 130 -109 3
-3 68 -55 145 -116 124 -98 240 -185 491 -371 281 -207 817 -547 1184 -751
489 -271 1086 -554 1505 -714 44 -17 118 -45 165 -63 103 -40 399 -145 495
-175 39 -13 79 -26 90 -31 47 -20 543 -163 704 -204 199 -50 501 -121 546
-128 17 -3 89 -17 160 -31 172 -35 170 -34 245 -46 36 -6 76 -13 90 -16 32 -6
276 -45 310 -49 138 -18 199 -27 220 -30 34 -5 102 -13 180 -20 36 -3 79 -8
95 -10 17 -2 64 -6 105 -10 41 -4 95 -8 120 -11 25 -2 81 -7 125 -10 44 -3
100 -7 125 -9 173 -14 403 -19 785 -20 458 0 716 8 970 30 120 10 153 13 240
20 44 3 87 8 95 10 8 2 51 7 95 10 44 3 94 8 110 10 49 7 187 25 225 31 19 3
54 7 76 10 23 3 51 6 62 9 11 2 42 7 69 11 26 3 57 8 68 10 11 2 40 7 65 10
25 3 52 8 60 9 8 2 78 15 155 30 77 14 194 38 260 51 66 14 131 28 145 30 14
3 53 11 86 19 34 8 73 16 85 19 37 7 258 63 424 108 83 22 157 42 165 44 91
21 632 197 850 276 124 45 448 172 502 197 24 11 81 35 128 54 298 122 928
430 1151 563 31 19 59 34 62 34 4 0 58 32 122 70 64 39 120 70 125 70 6 0 10
5 10 10 0 6 5 10 10 10 6 0 36 16 66 35 30 19 56 35 59 35 2 0 23 13 47 28 24
16 74 48 113 73 159 101 466 306 564 377 116 83 423 312 431 321 3 3 34 28 70
56 36 27 92 72 125 100 33 27 83 68 110 90 316 256 778 689 1081 1011 125 132
256 275 290 315 59 67 66 75 104 117 19 21 53 60 75 87 22 28 43 52 46 55 5 4
233 285 292 360 158 198 400 537 580 810 116 176 347 546 347 555 0 2 21 38
46 81 144 243 392 724 524 1014 123 271 114 251 190 434 164 393 387 1028 457
1301 3 11 16 56 29 100 13 44 25 91 28 105 3 14 15 59 26 100 35 123 82 323
135 565 43 203 54 257 61 310 3 22 10 56 14 75 5 19 14 67 20 105 13 85 18
114 30 185 5 30 12 75 15 100 3 25 8 56 10 70 9 58 16 110 20 150 2 24 7 59
10 79 2 20 7 59 10 86 10 96 16 150 20 175 2 14 7 63 10 110 4 47 9 99 10 115
6 70 18 233 20 270 16 291 20 444 19 805 0 438 -8 670 -29 915 -3 33 -7 89
-10 125 -3 36 -7 85 -10 110 -2 25 -7 74 -10 110 -3 36 -8 79 -10 96 -3 17 -7
57 -10 90 -3 32 -7 68 -10 79 -2 11 -7 47 -10 80 -3 33 -8 71 -10 85 -3 14 -7
43 -10 65 -3 22 -19 123 -36 225 -16 102 -32 201 -35 220 -3 19 -12 67 -21
105 -8 39 -16 79 -18 90 -9 55 -39 202 -62 300 -13 61 -27 121 -29 135 -3 14
-12 52 -21 85 -8 33 -16 67 -18 75 -6 29 -77 296 -91 345 -9 28 -24 83 -35
122 -123 460 -428 1275 -663 1777 -155 329 -285 580 -455 881 -53 94 -100 178
-106 188 -161 286 -494 783 -812 1216 -10 14 -81 104 -157 200 -290 366 -554
666 -861 979 -236 242 -326 329 -515 502 -51 47 -98 90 -104 95 -31 28 -174
155 -196 173 -14 11 -84 69 -155 129 -525 436 -1037 795 -1685 1180 -440 262
-1097 586 -1599 789 -47 19 -95 39 -106 44 -139 62 -769 278 -1080 369 -375
111 -937 243 -1215 287 -19 3 -51 9 -70 14 -19 5 -109 20 -200 34 -91 14 -174
28 -185 30 -11 2 -45 7 -75 10 -30 4 -66 8 -80 10 -57 9 -131 19 -240 31 -30
3 -71 8 -90 10 -19 2 -60 7 -90 10 -30 3 -71 8 -90 10 -19 2 -78 7 -130 10
-52 3 -111 8 -130 10 -19 2 -89 7 -155 11 -66 3 -145 7 -175 10 -73 5 -987 14
-991 9z"/>
</g>
</svg>
