<?xml version="1.0" standalone="no"?>
<!DOCTYPE svg PUBLIC "-//W3C//DTD SVG 20010904//EN"
 "http://www.w3.org/TR/2001/REC-SVG-20010904/DTD/svg10.dtd">
<svg version="1.0" xmlns="http://www.w3.org/2000/svg"
 width="922.000000pt" height="922.000000pt" viewBox="0 0 922.000000 922.000000"
 preserveAspectRatio="xMidYMid meet">
<metadata>
Created by potrace 1.14, written by Peter Selinger 2001-2017
</metadata>
<g transform="translate(0.000000,922.000000) scale(0.100000,-0.100000)"
fill="#000000" stroke="none">
<path d="M1992 9161 c66 -73 257 -442 443 -856 34 -77 109 -238 165 -359 l102
-218 -5 -322 c-4 -339 -10 -383 -56 -461 l-20 -35 47 -1 47 0 -72 -20 c-276
-74 -492 -220 -632 -428 -180 -266 -233 -605 -146 -947 83 -327 314 -582 643
-709 93 -36 264 -75 329 -75 90 0 87 -12 -9 -36 -118 -30 -268 -105 -381 -190
-368 -277 -529 -799 -401 -1302 83 -328 307 -607 597 -742 45 -21 108 -46 141
-55 l59 -17 -59 -32 c-288 -154 -512 -437 -618 -778 -48 -153 -65 -264 -71
-443 -9 -292 38 -604 136 -912 l30 -93 324 0 c179 0 325 2 325 5 0 3 -16 29
-36 57 -80 117 -147 259 -180 380 -19 75 -43 194 -43 226 l-1 22 314 0 313 0
6 -102 c8 -159 -1 -396 -18 -462 -9 -33 -25 -74 -36 -93 l-21 -33 344 0 345 0
-28 57 c-17 35 -32 89 -39 136 -6 50 -10 423 -10 1013 l0 934 -40 44 c-22 24
-67 57 -101 73 l-61 31 48 16 c65 22 151 72 218 126 l55 45 1 468 0 467 -270
0 -270 0 -2 -362 -3 -362 -50 -14 c-27 -7 -97 -14 -155 -15 -112 -1 -183 14
-270 58 -308 156 -457 588 -335 974 54 170 165 301 319 376 304 149 697 69
884 -179 12 -16 24 -27 25 -25 2 2 38 104 79 226 l76 223 -42 38 c-154 142
-394 233 -655 249 l-114 6 89 18 c340 69 614 272 763 566 156 306 151 722 -10
1033 -137 264 -361 443 -674 535 -69 21 -75 24 -42 24 l38 1 -19 28 c-52 74
-56 105 -60 460 l-3 332 24 53 c13 28 97 207 185 397 88 190 223 474 300 631
114 232 150 296 192 342 l52 57 -427 0 -426 0 19 -27 c71 -102 56 -269 -54
-578 -62 -178 -124 -334 -134 -340 -4 -2 -32 57 -61 133 -136 355 -173 485
-174 622 0 85 3 100 27 143 l27 47 -421 0 -420 0 44 -49z m1172 -2830 c214
-76 338 -269 337 -523 -1 -207 -109 -381 -286 -464 -208 -96 -450 -62 -609 87
-108 100 -156 224 -156 400 0 53 7 121 15 154 49 185 196 324 390 365 69 15
243 4 309 -19z m116 -4408 c2 -234 3 -520 2 -581 l-2 -74 -309 4 c-170 2 -313
6 -317 11 -8 7 14 109 42 195 93 287 275 461 514 492 30 4 58 8 63 9 4 0 7
-25 7 -56z"/>
<path d="M5155 6924 c-178 -27 -285 -59 -415 -125 -452 -230 -658 -753 -514
-1306 99 -382 399 -656 814 -744 152 -32 404 -32 543 0 237 54 383 134 542
295 109 111 171 205 225 340 61 155 93 362 82 529 l-5 77 -613 0 -614 0 0
-210 c0 -115 1 -211 3 -212 1 -1 131 -4 289 -7 l288 -6 -21 -43 c-136 -275
-593 -328 -824 -97 -100 101 -147 236 -147 419 0 180 51 305 166 414 93 88
211 132 356 132 154 0 280 -51 375 -151 l56 -59 320 0 c284 0 319 2 319 16 0
27 -58 162 -100 232 -145 244 -388 412 -700 483 -83 19 -353 34 -425 23z"/>
<path d="M1040 6217 c0 -753 1 -738 -74 -813 -22 -23 -59 -47 -81 -54 -23 -7
-126 -14 -247 -17 l-208 -5 0 -280 0 -280 288 4 c271 4 292 6 384 31 148 39
247 95 343 191 129 131 186 273 205 511 11 135 13 1128 3 1278 l-6 97 -304 0
-303 0 0 -663z"/>
<path d="M6803 5825 l-410 -1055 326 2 325 3 56 147 55 148 360 -3 359 -2 56
-147 55 -148 328 0 c181 0 326 3 324 8 -3 4 -186 473 -407 1042 -221 569 -404
1041 -407 1048 -4 9 -75 12 -307 12 l-303 0 -410 -1055z m830 12 l114 -317
-228 0 c-126 0 -229 3 -229 8 0 10 223 632 226 629 2 -1 54 -145 117 -320z"/>
</g>
</svg>
