<?xml version="1.0" standalone="no"?>
<!DOCTYPE svg PUBLIC "-//W3C//DTD SVG 20010904//EN"
 "http://www.w3.org/TR/2001/REC-SVG-20010904/DTD/svg10.dtd">
<svg version="1.0" xmlns="http://www.w3.org/2000/svg"
 width="380.000000pt" height="380.000000pt" viewBox="0 0 380.000000 380.000000"
 preserveAspectRatio="xMidYMid meet">
<metadata>
Created by potrace 1.14, written by Peter Selinger 2001-2017
</metadata>
<g transform="translate(0.000000,380.000000) scale(0.100000,-0.100000)"
fill="#000000" stroke="none">
<path d="M1856 3730 c-16 -17 -17 -23 -7 -48 10 -24 17 -28 41 -24 17 2 28 8
25 12 -3 5 -1 11 5 15 15 10 12 22 -12 45 -26 24 -28 24 -52 0z"/>
<path d="M2096 3708 c-32 -29 -39 -67 -17 -94 24 -30 58 -47 66 -33 4 6 12 8
19 6 6 -3 20 1 31 9 10 8 15 14 11 14 -5 0 -3 6 3 14 28 34 -16 106 -65 106
-13 0 -34 -10 -48 -22z"/>
<path d="M1024 3520 c-22 -11 -50 -30 -62 -41 -12 -11 -22 -17 -22 -14 0 3
-27 -12 -59 -35 -33 -22 -65 -40 -70 -40 -6 0 -10 -3 -8 -7 1 -5 -1 -8 -4 -8
-3 0 -13 -7 -21 -15 -9 -8 -31 -26 -49 -40 -18 -14 -38 -31 -46 -38 -7 -7 -13
-11 -13 -8 0 2 -22 -17 -49 -44 -27 -27 -52 -46 -55 -43 -3 4 -6 -1 -6 -10 0
-8 -9 -19 -21 -22 -11 -4 -19 -9 -16 -11 2 -3 -22 -32 -54 -65 -33 -33 -59
-62 -59 -65 0 -2 -11 -17 -24 -32 -14 -15 -24 -29 -24 -32 1 -3 -13 -21 -30
-40 -18 -19 -32 -38 -32 -42 0 -4 -15 -29 -34 -55 -73 -104 -188 -375 -211
-499 -2 -10 -4 -19 -5 -19 -2 0 -8 -31 -15 -75 -3 -19 -8 -46 -10 -60 -14 -81
-19 -152 -18 -290 1 -187 6 -300 14 -300 3 0 6 -12 7 -27 1 -16 4 -39 7 -53 3
-14 8 -43 11 -65 4 -22 10 -48 15 -57 6 -10 7 -18 4 -18 -3 0 2 -17 11 -38 9
-20 17 -41 18 -47 7 -32 19 -55 28 -55 5 0 8 -6 6 -12 -8 -22 127 -271 169
-316 7 -7 13 -19 13 -27 0 -7 7 -16 16 -19 9 -4 14 -9 11 -12 -2 -3 5 -16 17
-29 57 -64 64 -73 60 -78 -3 -3 4 -8 15 -12 12 -3 21 -11 21 -16 0 -10 146
-159 155 -159 3 0 19 -14 35 -30 16 -17 32 -30 35 -30 4 0 12 -6 19 -12 8 -7
24 -20 36 -28 12 -8 29 -21 36 -28 8 -7 14 -11 14 -8 0 3 9 -2 20 -11 23 -20
118 -75 180 -104 129 -61 246 -109 265 -109 8 0 15 -4 15 -10 0 -5 3 -9 8 -9
4 1 9 0 12 -1 3 -1 12 -3 20 -5 8 -2 48 -15 88 -30 68 -24 185 -45 170 -30 -4
4 -3 17 2 30 5 13 6 26 2 29 -3 4 -8 19 -10 34 -2 14 -8 32 -14 39 -5 7 -7 17
-3 23 3 5 2 10 -2 10 -5 0 -16 20 -25 45 -10 25 -14 45 -10 45 7 0 8 22 3 70
-1 8 -17 33 -36 55 -19 22 -36 44 -37 50 -5 33 -4 155 1 155 4 0 8 8 9 17 3
31 7 48 14 59 4 6 9 21 12 35 2 13 12 40 21 59 9 19 27 55 38 80 12 25 25 47
30 48 4 2 7 8 7 14 0 6 18 39 40 74 22 35 40 68 40 74 0 5 3 10 8 10 4 0 13
15 21 32 8 18 17 35 21 38 8 6 121 236 124 253 1 7 12 34 24 61 12 27 22 52
22 57 0 4 5 20 12 36 6 15 12 37 14 48 3 24 12 60 14 60 5 0 20 115 24 175 3
46 -19 119 -41 136 -23 17 -69 11 -96 -13 -11 -10 -57 -54 -101 -99 -45 -45
-103 -96 -131 -115 -27 -19 -53 -38 -57 -44 -4 -5 -8 -6 -8 -1 0 5 -8 2 -17
-6 -10 -8 -33 -20 -50 -28 -18 -7 -33 -16 -33 -21 0 -5 -3 -8 -7 -7 -10 2 -66
-24 -74 -35 -3 -4 -10 -7 -15 -6 -5 1 -22 -3 -39 -10 -34 -13 -47 -18 -57 -20
-4 -1 -26 -8 -48 -16 -22 -8 -40 -12 -40 -10 0 3 -11 0 -24 -5 -29 -10 -33 -2
-41 71 -3 24 -9 64 -15 89 -6 25 -13 56 -16 70 -16 73 -82 178 -104 165 -6 -4
-10 -2 -10 3 0 17 -44 0 -68 -26 -12 -13 -32 -43 -43 -67 -11 -23 -32 -56 -47
-72 -29 -32 -62 -49 -62 -32 0 6 -4 8 -9 4 -5 -3 -12 -1 -16 5 -3 5 -23 17
-43 27 -20 9 -39 20 -42 23 -3 4 -20 13 -37 21 -18 8 -33 17 -33 21 0 5 -4 7
-9 6 -14 -4 -81 61 -81 78 0 8 -3 14 -8 14 -4 0 -18 24 -31 53 -13 28 -30 66
-37 82 -8 17 -25 42 -38 57 -14 14 -22 29 -19 32 4 3 2 6 -3 6 -8 0 -13 15
-16 55 -3 30 15 165 28 223 9 37 18 76 20 87 8 46 94 265 109 281 6 6 19 30
29 53 11 22 22 41 26 41 5 0 11 11 14 25 4 14 11 25 16 25 6 0 10 4 10 10 0
11 0 10 90 120 34 41 66 77 71 78 5 2 9 11 9 19 0 9 3 13 7 9 4 -4 23 9 43 28
68 67 100 94 100 88 0 -4 11 5 24 20 12 15 26 25 29 21 4 -3 9 2 13 11 3 9 10
13 15 10 5 -3 9 0 9 5 0 6 6 11 13 11 6 0 28 14 47 30 19 17 42 28 50 25 8 -4
11 -3 7 1 -4 4 5 13 20 20 16 7 24 13 18 13 -5 1 -28 -8 -51 -19z"/>
<path d="M1674 3501 c-22 -18 -21 -39 4 -58 39 -32 81 2 59 47 -15 29 -36 33
-63 11z"/>
<path d="M2310 3511 c0 -4 -15 -8 -32 -8 -44 1 -181 -14 -253 -26 -93 -16
-113 -21 -136 -33 -15 -7 -29 -10 -33 -7 -3 4 -6 -1 -6 -11 0 -16 29 -54 37
-48 2 1 4 2 6 1 17 -5 46 -11 60 -12 9 -1 17 -4 17 -8 0 -8 126 -5 178 5 23 5
42 13 42 17 0 5 11 7 25 5 14 -3 25 0 25 5 0 5 3 8 8 7 6 -2 33 3 102 17 50
11 150 14 155 4 4 -5 9 -8 13 -6 4 3 23 -15 42 -39 19 -23 38 -43 43 -43 8 -1
47 -39 47 -46 0 -3 12 -19 28 -35 51 -56 62 -70 62 -84 0 -8 7 -16 15 -20 8
-3 15 -14 15 -24 0 -10 3 -22 7 -26 4 -3 8 -17 10 -29 13 -80 24 -108 49 -117
31 -12 64 1 89 34 25 33 38 33 55 1 7 -14 17 -25 22 -25 4 0 8 -7 8 -15 0 -8
3 -15 8 -15 4 0 18 -17 32 -38 13 -20 31 -45 40 -54 21 -24 32 -38 60 -78 13
-19 30 -41 37 -48 19 -19 16 -24 -8 -17 -12 4 -29 9 -38 10 -9 2 -18 4 -21 5
-3 1 -8 2 -12 1 -5 0 -8 4 -8 9 0 6 -9 10 -19 10 -11 0 -23 5 -26 10 -3 6 -14
10 -24 10 -10 0 -24 6 -30 14 -7 8 -27 18 -44 22 -17 3 -38 10 -47 15 -14 7
-34 14 -52 18 -4 1 -26 8 -48 16 -43 15 -42 15 -65 15 -8 0 -15 7 -15 16 0 8
-4 12 -10 9 -5 -3 -10 -2 -10 3 0 5 -8 13 -19 18 -22 10 -85 59 -119 92 -12
12 -25 22 -28 22 -8 0 -158 123 -162 132 -2 5 -7 6 -11 4 -4 -3 -26 12 -49 33
-23 21 -44 36 -47 33 -3 -3 -5 -1 -5 4 0 6 -27 23 -60 39 -48 23 -62 26 -74
16 -14 -12 -13 -17 3 -49 22 -43 143 -172 160 -172 7 0 10 -4 6 -9 -3 -5 4
-12 15 -16 11 -3 20 -10 20 -15 0 -5 8 -11 18 -14 15 -5 35 -20 90 -66 6 -6
12 -8 12 -4 0 4 8 -2 18 -12 9 -11 34 -30 55 -43 20 -12 37 -27 37 -32 0 -5 6
-9 13 -9 7 0 20 -8 29 -17 9 -10 23 -22 30 -28 31 -23 98 -85 91 -85 -3 0 3
-8 14 -17 10 -10 34 -40 53 -68 19 -27 37 -51 42 -53 4 -2 8 -9 8 -15 0 -7 8
-22 18 -35 l18 -23 27 21 c15 12 27 26 27 31 0 16 34 49 51 49 9 0 37 -11 62
-24 25 -14 48 -22 51 -19 3 4 6 1 6 -5 0 -7 6 -12 14 -12 7 0 19 -7 26 -15 7
-8 16 -12 21 -9 5 3 16 -1 24 -8 26 -23 41 -33 55 -36 36 -8 165 -114 153
-126 -3 -3 0 -6 8 -6 8 0 20 -4 28 -9 11 -7 8 -18 -16 -58 -25 -41 -41 -72
-48 -93 -1 -3 -15 -34 -32 -70 -16 -36 -36 -81 -43 -100 -7 -19 -18 -41 -24
-49 -8 -11 -8 -13 1 -7 9 5 11 2 7 -8 -3 -9 -10 -16 -16 -16 -5 0 -6 -4 -3
-10 3 -5 2 -10 -4 -10 -5 0 -13 -9 -16 -21 -4 -11 -9 -19 -11 -16 -3 2 -19
-10 -37 -28 -29 -29 -37 -32 -68 -26 -26 6 -41 3 -62 -12 -32 -22 -79 -67 -70
-67 3 0 0 -7 -7 -15 -7 -8 -16 -15 -20 -15 -8 0 -5 221 4 260 3 14 7 36 10 49
3 14 21 48 39 76 19 28 37 61 41 73 4 12 11 22 16 22 5 0 7 9 5 20 -2 11 0 20
5 20 4 0 7 8 5 18 -1 9 6 34 16 54 21 40 24 58 11 58 -15 0 -52 -37 -45 -44 3
-3 1 -6 -6 -6 -7 0 -9 -4 -6 -10 3 -5 2 -10 -4 -10 -6 0 -8 -7 -4 -16 4 -12 2
-15 -8 -12 -10 3 -15 28 -16 98 -1 51 -5 95 -8 98 -10 10 -27 -16 -31 -48 -2
-17 -7 -36 -10 -42 -9 -15 -28 20 -30 57 -1 17 -3 32 -4 35 -1 3 -2 8 -1 13 0
4 -4 7 -9 7 -17 0 -27 -38 -24 -91 2 -27 -1 -49 -5 -49 -12 0 -23 29 -15 41 3
5 0 9 -6 9 -6 0 -8 5 -5 10 7 12 -21 43 -33 36 -12 -7 -4 -78 13 -106 6 -11 3
-10 -12 3 -47 41 -60 -5 -18 -67 13 -20 21 -36 17 -36 -4 0 -1 -4 5 -8 7 -4
14 -21 16 -38 2 -16 6 -35 10 -41 3 -5 4 -13 0 -17 -3 -3 -8 -21 -10 -38 -2
-18 -10 -50 -18 -70 -8 -21 -12 -38 -9 -38 4 0 1 -6 -5 -13 -6 -8 -8 -17 -4
-20 3 -4 1 -13 -6 -21 -6 -8 -11 -18 -10 -22 1 -5 0 -11 -1 -14 -5 -13 -10
-48 -12 -82 -2 -21 -5 -38 -8 -38 -3 0 -5 -73 -5 -162 0 -90 -4 -161 -9 -160
-5 2 -12 -1 -15 -7 -4 -5 -18 -12 -31 -14 -14 -3 -38 -10 -53 -16 -16 -6 -32
-9 -37 -6 -5 3 -10 2 -12 -3 -2 -5 -75 -33 -128 -47 -52 -15 -68 -20 -89 -31
-14 -8 -30 -14 -35 -14 -16 0 -131 -74 -156 -100 -39 -41 -65 -75 -69 -91 -9
-32 -10 -149 -1 -149 6 0 9 -3 8 -7 -7 -25 52 -92 100 -114 17 -7 32 -17 32
-21 0 -5 6 -7 13 -6 19 4 21 -48 2 -56 -9 -3 -14 -2 -11 3 3 5 -1 11 -9 14
-15 7 -11 -17 9 -42 9 -12 8 -12 -11 -3 -28 16 -34 15 -27 -2 3 -8 15 -16 26
-20 18 -4 19 -7 8 -21 -12 -14 -12 -18 0 -25 7 -5 15 -21 17 -37 5 -49 6 -53
16 -53 5 0 7 -6 5 -12 -6 -18 57 -83 98 -103 39 -19 64 -25 114 -29 27 -2 35
-8 41 -29 4 -14 5 -28 3 -30 -3 -2 9 -10 25 -17 30 -12 88 -9 112 6 8 5 18 9
24 9 9 0 55 -42 55 -51 0 -3 15 -22 34 -42 19 -20 45 -50 59 -65 39 -46 68
-57 103 -38 27 14 30 21 30 69 1 28 -2 52 -6 52 -4 0 -6 10 -5 22 1 13 0 28
-4 33 -3 6 -6 15 -8 20 -13 60 -13 64 8 70 11 4 18 9 15 12 -3 4 -1 12 5 20 7
7 9 28 6 46 -5 30 -3 33 16 32 35 -3 63 14 80 48 25 53 55 86 181 201 21 20
36 36 32 36 -4 0 -2 6 4 13 6 6 21 28 33 47 30 46 64 57 202 69 12 1 48 57 52
81 2 8 4 24 6 35 1 11 7 25 12 32 6 7 16 19 23 27 6 8 12 19 12 25 0 5 5 11
11 13 14 5 22 115 9 123 -5 3 -7 12 -3 20 3 8 0 15 -5 15 -16 0 -43 -30 -37
-41 4 -5 1 -9 -6 -9 -6 0 -9 -8 -7 -18 7 -24 -10 -47 -40 -56 -16 -6 -33 -29
-56 -80 -34 -73 -48 -88 -82 -81 -11 2 -23 4 -27 4 -13 1 -5 73 12 106 8 17
14 33 13 38 -1 4 2 7 8 7 5 0 24 14 42 32 30 29 33 37 35 101 1 72 25 154 50
174 8 6 14 15 14 20 -1 17 11 43 20 43 5 0 8 3 7 8 -1 4 13 37 31 73 17 37 34
75 36 85 30 121 42 191 41 247 -1 37 4 69 9 71 6 3 4 5 -3 5 -7 1 -11 4 -9 9
5 7 18 166 22 262 2 68 -31 167 -75 225 -21 27 -149 152 -206 200 -26 22 -56
48 -66 58 -10 9 -22 17 -27 17 -5 0 -13 9 -16 20 -4 11 -11 18 -16 15 -5 -4
-12 1 -15 9 -3 9 -11 16 -18 16 -6 0 -30 17 -53 38 -23 20 -56 48 -74 62 -18
14 -44 38 -58 54 -15 16 -37 41 -51 56 -46 50 -70 80 -65 80 5 0 -48 61 -77
89 -32 31 -44 38 -91 51 -26 8 -47 18 -47 22 0 3 -8 9 -19 13 -18 5 -31 15
-92 70 -42 36 -64 45 -131 50 -88 7 -88 7 -88 16 0 5 -7 6 -15 3 -8 -4 -23 -3
-32 1 -10 4 -38 10 -63 12 -25 2 -53 5 -62 7 -10 2 -18 1 -18 -3z m462 -2129
c-13 -10 -37 -19 -53 -20 -17 -1 -33 -3 -37 -5 -4 -1 -8 3 -9 8 -2 6 0 10 5
11 4 0 14 3 22 7 15 6 52 13 80 15 10 1 7 -5 -8 -16z m-82 -66 c0 -6 5 -5 12
2 7 7 16 12 20 12 12 0 10 -20 -4 -34 -27 -28 -68 -76 -68 -80 0 -2 -16 -32
-34 -65 -19 -34 -33 -61 -30 -61 2 0 -3 -11 -12 -25 -8 -13 -13 -29 -9 -35 3
-5 2 -10 -3 -10 -21 0 -16 -96 7 -124 7 -9 10 -16 7 -16 -4 0 -2 -9 4 -20 11
-20 3 -26 -25 -20 -5 1 -19 4 -31 6 -35 7 -107 42 -135 66 -30 26 -55 81 -53
118 1 38 24 110 34 110 6 0 10 8 10 18 0 23 89 116 132 138 17 9 57 17 90 18
32 0 58 4 58 7 0 3 7 6 15 6 8 0 15 -5 15 -11z m-280 -50 c0 -3 -6 -11 -13
-18 -86 -88 -119 -222 -92 -363 6 -27 5 -28 -8 -12 -8 9 -18 17 -23 17 -13 0
-73 67 -66 74 3 3 1 6 -5 6 -6 0 -13 17 -15 38 -5 39 10 102 24 102 4 0 8 6 8
14 0 8 9 21 20 29 11 8 17 17 13 20 -3 4 -1 7 5 7 7 0 20 8 30 18 35 33 82 63
92 57 5 -3 11 -1 15 5 6 10 15 14 15 6z m455 -831 c15 -10 32 -20 38 -21 41
-7 49 -14 57 -49 1 -5 6 -16 12 -22 6 -7 8 -13 5 -13 -4 0 0 -17 7 -37 7 -21
11 -43 9 -50 -2 -6 0 -14 6 -17 14 -9 2 -36 -16 -36 -15 0 -118 100 -157 153
-11 14 -24 23 -29 20 -6 -3 -7 -1 -4 4 4 6 1 16 -7 22 -16 13 -7 86 11 86 6 0
15 4 19 8 5 4 11 0 15 -10 4 -10 19 -27 34 -38z"/>
<path d="M1941 1100 c-23 -23 -29 -35 -23 -48 5 -9 8 -24 8 -32 -1 -19 25 -51
36 -44 4 3 8 1 8 -4 0 -5 16 -9 35 -9 19 0 35 5 35 10 0 6 3 7 7 4 10 -11 35
32 40 69 3 23 1 34 -8 34 -7 0 -10 3 -6 6 3 3 -3 14 -14 25 -30 30 -80 25
-118 -11z"/>
<path d="M2102 838 c-22 -22 -14 -55 17 -66 25 -9 30 -7 42 15 22 41 -26 84
-59 51z"/>
<path d="M2130 652 c0 -6 -9 -14 -20 -17 -11 -4 -18 -11 -15 -16 4 -5 2 -9 -4
-9 -19 0 9 -57 34 -68 16 -7 25 -8 25 -2 0 6 8 10 18 10 29 0 41 30 25 68 -7
17 -17 32 -22 32 -5 0 -16 3 -25 6 -9 3 -16 1 -16 -4z"/>
<path d="M2165 502 c-11 -2 -27 -13 -36 -23 -9 -10 -19 -16 -22 -13 -5 5 -14
-17 -21 -53 -2 -10 -5 -22 -6 -28 -3 -16 12 -55 21 -55 5 0 9 -6 9 -13 0 -15
41 -38 78 -44 30 -5 87 23 105 51 18 26 23 71 13 107 -13 48 -86 85 -141 71z"/>
</g>
</svg>
